<svg width="20" height="31" viewBox="0 0 20 31" fill="none" xmlns="http://www.w3.org/2000/svg">
<path d="M10 18.0055L3.6612 24.3443C3.26047 24.745 2.75046 24.9454 2.13115 24.9454C1.51184 24.9454 1.00182 24.745 0.601093 24.3443C0.200364 23.9435 0 23.4335 0 22.8142C0 22.1949 0.200364 21.6849 0.601093 21.2842L6.93989 14.9454L0.601093 8.6612C0.200364 8.26047 0 7.75046 0 7.13115C0 6.51184 0.200364 6.00182 0.601093 5.60109C1.00182 5.20036 1.51184 5 2.13115 5C2.75046 5 3.26047 5.20036 3.6612 5.60109L10 11.9399L16.2842 5.60109C16.6849 5.20036 17.1949 5 17.8142 5C18.4335 5 18.9435 5.20036 19.3443 5.60109C19.7814 6.03825 20 6.55738 20 7.15847C20 7.75956 19.7814 8.26047 19.3443 8.6612L13.0055 14.9454L19.3443 21.2842C19.745 21.6849 19.9454 22.1949 19.9454 22.8142C19.9454 23.4335 19.745 23.9435 19.3443 24.3443C18.9071 24.7814 18.388 25 17.7869 25C17.1858 25 16.6849 24.7814 16.2842 24.3443L10 18.0055Z" fill="black"/>
</svg>
