<svg width="128" height="37" viewBox="0 0 128 37" fill="none" xmlns="http://www.w3.org/2000/svg">
<path d="M111.58 36.9981C110.821 37.011 110.106 36.9592 109.436 36.8425C108.78 36.7258 108.239 36.5767 107.814 36.3952L109.166 31.9029L109.359 31.9418C110.364 32.24 111.22 32.3048 111.928 32.1362C112.649 31.9807 113.197 31.4102 113.57 30.4249L113.918 29.4914L106.191 7.1271H112.469L116.931 23.0933H117.163L121.683 7.1271H128L119.616 31.2222C119.217 32.3891 118.67 33.4068 117.974 34.2754C117.292 35.1441 116.429 35.8118 115.386 36.2785C114.343 36.7582 113.074 36.9981 111.58 36.9981Z" fill="black"/>
<path d="M90.5525 7.1271L94.4739 14.7504L98.5498 7.1271H104.712L98.4532 18.0176L104.866 28.8691H98.743L94.4739 21.3625L90.3207 28.8691H84.1199L90.5525 18.0176L84.3517 7.1271H90.5525Z" fill="black"/>
<path d="M33.0372 0V28.9764H27.0683V0H33.0372Z" fill="black"/>
<path d="M72.0856 7.1271C72.3235 7.1271 72.5657 7.13017 72.8103 7.13313C73.0554 7.1361 73.3031 7.13895 73.5539 7.13895H73.695L73.7448 7.27232C74.2575 8.64867 74.7543 10.0116 75.262 11.3865L75.9546 13.2628C76.1268 13.7327 76.2973 14.2034 76.4645 14.6752L76.6307 15.1474C76.847 15.769 76.9039 16.4475 76.6998 17.0914C76.4733 17.8071 75.9168 18.3186 75.2092 18.5164L75.2094 18.5166C74.2833 18.7761 73.3234 18.9362 72.3975 19.125L72.3973 19.1248C71.1205 19.3857 69.8723 19.6113 68.7272 20.1718C68.2013 20.4296 67.7366 20.6468 67.4759 21.1106C67.3999 21.2458 67.3558 21.3672 67.3485 21.4756C67.3417 21.5767 67.366 21.6769 67.449 21.7821L67.4862 21.826C67.5735 21.9222 67.6621 21.9719 67.7509 21.9915C67.8546 22.0145 67.983 22.0017 68.1432 21.9337C69.1349 21.5129 70.1317 21.0727 71.151 20.6965C71.7008 20.4931 72.2877 20.3867 72.8475 20.2926C73.3317 20.2113 73.8289 20.1703 74.3202 20.1718L74.5251 20.1753C76.5633 20.2374 78.2242 21.1398 79.6374 22.5007L79.778 22.6383C81.4212 24.2756 82.3578 26.4999 82.9995 28.6449L83.0789 28.91H77.425L77.3796 28.767C77.0223 27.6431 76.5401 26.6218 75.6734 25.8183C74.9627 25.1603 74.1518 24.7987 73.1704 24.6269C72.702 24.5449 72.5247 24.5304 72.2357 24.5196C71.9378 24.5085 71.5219 24.5018 70.5903 24.4365C69.5546 24.3638 68.7862 24.3601 67.8586 23.842C66.4084 23.0318 65.8856 21.0857 67.0189 19.8097L67.1441 19.6723C67.777 18.9953 68.5159 18.4594 69.2729 17.9633C69.9611 17.5128 70.3102 17.04 70.4448 16.5198C70.5814 15.9919 70.5063 15.3807 70.2739 14.6354C69.9558 13.6153 69.5697 12.6223 69.2077 11.6012C69.1989 11.5767 69.1917 11.553 69.1856 11.5325C69.179 11.5105 69.1742 11.4944 69.1688 11.4775C69.1581 11.4438 69.151 11.4285 69.146 11.4207C69.1453 11.4196 69.1447 11.4189 69.1444 11.4184C69.1416 11.4172 69.1253 11.4108 69.0839 11.4116C68.9723 11.4137 68.9125 11.4276 68.8751 11.4478C68.8453 11.4638 68.8105 11.4939 68.7754 11.5785L68.7752 11.5789C68.6173 11.957 68.4538 12.3322 68.2909 12.7057C68.1686 12.9862 68.0468 13.2658 67.9275 13.546L67.8091 13.8266C65.9874 18.1927 64.1703 22.5599 62.3501 26.9262C62.1172 27.4847 61.8805 28.0453 61.6292 28.5991C61.6214 28.6165 61.6023 28.6621 61.5836 28.7075C61.5745 28.7296 61.566 28.7506 61.5597 28.766C61.5566 28.7737 61.5539 28.7801 61.5521 28.7845C61.5513 28.7866 61.5506 28.7883 61.5502 28.7895C61.55 28.79 61.5498 28.7907 61.5498 28.7907L61.5496 28.7911L61.4974 28.9192L61.3603 28.9188H61.3412C61.3294 28.9188 61.3132 28.9186 61.2956 28.9186C61.2601 28.9186 61.22 28.9186 61.1985 28.9188C60.3575 28.9248 59.5164 28.9269 58.67 28.9277H55.8024L55.9212 28.6425C56.2535 27.8445 56.5701 27.0842 56.8867 26.3249C58.6866 22.0027 60.4865 17.6805 62.2864 13.359L63.4706 10.5211C63.8644 9.57524 64.2559 8.62886 64.6411 7.68004L64.6923 7.54909C64.7095 7.50366 64.7264 7.45804 64.7414 7.41713C64.7563 7.3765 64.7692 7.341 64.7782 7.3157C64.7827 7.30311 64.7863 7.29306 64.7888 7.28618C64.79 7.28279 64.7909 7.28011 64.7916 7.27834C64.7919 7.27749 64.7922 7.27677 64.7924 7.27634L64.7926 7.27573L64.8407 7.13895H65.5459C67.7164 7.13893 69.8862 7.13899 72.0844 7.1271H72.0856Z" fill="black"/>
<path d="M5.71118 7.12891C8.90947 7.13055 12.1113 7.11809 15.3107 7.16366C17.5871 7.19618 19.7135 7.82378 21.5584 9.2645C22.8852 10.3008 23.8325 11.6298 24.1971 13.2975C24.6432 15.3359 24.1626 17.2267 22.9828 18.9047L22.9826 18.9045C21.7228 20.6973 19.8905 21.5815 17.8881 22.1098C16.7954 22.3982 15.6822 22.4926 14.5706 22.4994C12.4238 22.5119 10.2757 22.5105 8.13001 22.5141C8.17802 22.5893 8.22661 22.6644 8.27575 22.7444C8.37101 22.8995 8.4622 23.062 8.52785 23.2377L8.55444 23.3138C8.67741 23.6955 8.73581 24.1054 8.75356 24.5022L8.75876 24.6715C8.77868 25.9623 8.75864 27.2565 8.75276 28.5422C8.75267 28.5854 8.74649 28.6241 8.74096 28.6547C8.73475 28.6891 8.72933 28.7145 8.72317 28.7539L8.69598 28.9277H3.46289L3.44709 28.7391C3.44258 28.685 3.42732 28.5691 3.4265 28.4655C3.42216 27.8073 3.39115 27.122 3.4239 26.4468C3.44663 25.9797 3.36016 25.5907 3.179 25.2638C2.9975 24.9363 2.71349 24.6577 2.32075 24.4235L2.32055 24.4233C1.92908 24.1893 1.54168 23.9483 1.15682 23.7055C1.01418 23.6157 0.875894 23.5147 0.746782 23.4048L0.746382 23.4046C0.339376 23.0566 0.0772023 22.662 0.0144766 22.2242C-0.0486608 21.7835 0.096045 21.3384 0.422712 20.9041C0.896425 20.2747 1.47135 19.7148 1.99548 19.1597C2.61371 18.5051 3.1308 17.8305 3.30795 16.975C3.39178 16.5714 3.40591 16.142 3.40811 15.7062C3.42136 13.0674 3.42135 10.4281 3.4265 7.78829V7.1271H4.34074L5.71118 7.12891ZM8.69458 8.31852C8.68865 8.38211 8.68472 8.42925 8.68359 8.47899C8.64872 9.92424 8.68235 11.3688 8.69518 12.8233C8.70799 14.275 8.69996 15.7332 8.58063 17.1927C8.53426 17.7562 8.33845 18.1906 8.03065 18.597L8.03085 18.5972C7.5239 19.2675 6.80118 19.5617 6.06604 19.7305L6.06624 19.7308C5.63387 19.8303 5.19435 19.909 4.76676 19.9918C4.33649 20.0752 3.91453 20.1634 3.50367 20.2833C2.82977 20.4799 2.16015 20.7452 1.56905 21.1017C1.27091 21.2815 1.16986 21.511 1.18121 21.6932C1.19249 21.8743 1.31848 22.0722 1.60943 22.1861L1.63942 22.1969C1.79275 22.2476 1.99728 22.2507 2.16201 22.2072L2.26497 22.1791C2.50475 22.1112 2.74255 22.0288 2.98828 21.9451C3.23158 21.8622 3.482 21.778 3.73878 21.7113L3.84933 21.6838C4.46966 21.5363 5.13532 21.3731 5.79875 21.363L6.70518 21.3522C8.82073 21.3326 10.9392 21.3512 13.0488 21.3421C13.3676 21.3407 13.6938 21.2964 14.0164 21.2311C15.5961 20.9124 16.7168 19.9702 17.5116 18.5652C18.3471 17.089 18.5039 15.4847 18.3291 13.8024C18.1758 12.3292 17.6808 11.015 16.6932 9.93512L16.596 9.83129C15.6697 8.86409 14.5626 8.3279 13.2172 8.33499C11.9282 8.34169 10.6372 8.32446 9.35192 8.31852C9.13459 8.31736 8.91789 8.31818 8.69458 8.31852Z" fill="black"/>
<path fill-rule="evenodd" clip-rule="evenodd" d="M46.4043 28.9363C44.1892 28.9363 42.2768 28.4825 40.6671 27.5749C39.0573 26.6674 37.821 25.3774 36.9582 23.705C36.1083 22.0195 35.6833 20.0294 35.6833 17.7346C35.6833 15.5047 36.1083 13.547 36.9582 11.8616C37.821 10.1762 39.0316 8.86023 40.5898 7.9138C42.1609 6.96736 44.0025 6.49415 46.1145 6.49415C47.544 6.49415 48.8768 6.72751 50.1131 7.19425C51.3494 7.64802 52.4312 8.33515 53.3584 9.25566C54.2856 10.1632 55.0068 11.3106 55.5219 12.6978C56.037 14.0721 56.2946 15.6862 56.2946 17.5402V19.1737H41.5812C41.6184 20.2047 41.8224 21.0993 42.1931 21.8575C42.6052 22.6872 43.1783 23.329 43.9124 23.7827C44.6593 24.2235 45.5157 24.4439 46.4815 24.4439C47.1512 24.4439 47.7564 24.3467 48.2973 24.1522C48.8382 23.9578 49.3018 23.6725 49.6882 23.2966C50.0874 22.9206 50.3836 22.4668 50.5767 21.9353L56.1014 22.3047C55.831 23.6401 55.2644 24.807 54.4015 25.8053C53.5516 26.7906 52.4505 27.562 51.0983 28.1195C49.7461 28.664 48.1814 28.9363 46.4043 28.9363ZM48.6064 11.6671C49.2761 12.1079 49.7783 12.7367 50.1131 13.5535C50.3454 14.1201 50.4971 14.7554 50.5683 15.4593H41.609C41.6768 14.7456 41.8457 14.0974 42.1159 13.5146C42.4764 12.7367 42.9916 12.1209 43.6612 11.6671C44.3438 11.2133 45.1744 10.9865 46.1531 10.9865C47.1319 10.9865 47.9496 11.2133 48.6064 11.6671Z" fill="black"/>
</svg>
